<svg xmlns="http://www.w3.org/2000/svg" viewBox="0 0 64 64" fill="none">
  <rect width="64" height="64" rx="18" fill="#1A659E" />
  <path
    d="M26.667 32h10.666"
    stroke="#F8FBFF"
    stroke-width="3.2"
    stroke-linecap="round"
    stroke-linejoin="round"
  />
  <path
    d="M26.667 21.333h10.666"
    stroke="#F8FBFF"
    stroke-width="3.2"
    stroke-linecap="round"
    stroke-linejoin="round"
  />
  <path
    d="M37.333 56V48a5.333 5.333 0 0 0-10.666 0v8"
    stroke="#F8FBFF"
    stroke-width="3.2"
    stroke-linecap="round"
    stroke-linejoin="round"
  />
  <path
    d="M16 26.667h-5.333A5.333 5.333 0 0 0 5.333 32v18.667A5.333 5.333 0 0 0 10.667 56h42.666a5.333 5.333 0 0 0 5.334-5.333V24a5.333 5.333 0 0 0-5.334-5.333H48"
    stroke="#F8FBFF"
    stroke-width="3.2"
    stroke-linecap="round"
    stroke-linejoin="round"
  />
  <path
    d="M16 56V13.333A5.333 5.333 0 0 1 21.333 8h21.334A5.333 5.333 0 0 1 48 13.333V56"
    stroke="#F8FBFF"
    stroke-width="3.2"
    stroke-linecap="round"
    stroke-linejoin="round"
  />
</svg>
